<mxfile host="app.diagrams.net" modified="2023-12-31T18:05:01.996Z" agent="Mozilla/5.0 (Macintosh; Intel Mac OS X 10_15_7) AppleWebKit/605.1.15 (KHTML, like Gecko) Version/17.2.1 Safari/605.1.15" version="22.1.16" etag="aEl-oVC7lzxo1XDkZ6kX" type="github">
  <diagram name="Page-1" id="2jyy6lTc-v_kSyWZo5V_">
    <mxGraphModel>
      <root>
        <mxCell id="0" />
        <mxCell id="1" parent="0" />
      </root>
    </mxGraphModel>
  </diagram>
</mxfile>
